<svg width="15" height="15" viewBox="0 0 15 15" fill="none" xmlns="http://www.w3.org/2000/svg">
<path d="M9.375 7.5C9.375 8.53375 8.53375 9.375 7.5 9.375C6.46625 9.375 5.625 8.53375 5.625 7.5C5.625 6.46625 6.46625 5.625 7.5 5.625C8.53375 5.625 9.375 6.46625 9.375 7.5ZM15 7.21937C15 7.21937 12.3425 12.5 7.50938 12.5C3.02188 12.5 0 7.21937 0 7.21937C0 7.21937 2.77875 2.5 7.50938 2.5C12.3181 2.5 15 7.21937 15 7.21937ZM10.625 7.5C10.625 5.77688 9.22313 4.375 7.5 4.375C5.77688 4.375 4.375 5.77688 4.375 7.5C4.375 9.22312 5.77688 10.625 7.5 10.625C9.22313 10.625 10.625 9.22312 10.625 7.5Z" fill="white"/>
</svg>
