<svg width="20" height="20" viewBox="0 0 20 20" fill="none" xmlns="http://www.w3.org/2000/svg">
<g clip-path="url(#clip0_4_20)">
<path d="M9.99514 0C4.4779 0 0 4.59325 0 10.2579C0 14.6627 2.74891 18.5813 6.83827 19.9901C7.33366 20.0794 7.51821 19.7619 7.51821 19.494C7.51821 19.246 7.51821 18.6012 7.5085 17.748C4.73045 18.3631 4.13793 16.369 4.13793 16.369C3.6814 15.1885 3.0306 14.871 3.0306 14.871C2.11753 14.2361 3.09859 14.246 3.09859 14.246C4.09908 14.3155 4.63332 15.3075 4.63332 15.3075C5.52695 16.875 6.97426 16.4187 7.54735 16.1607C7.63477 15.496 7.89704 15.0496 8.17873 14.7917C5.96406 14.5337 3.62312 13.6508 3.62312 9.72222C3.62312 8.60119 4.01166 7.68849 4.65274 6.96429C4.5459 6.70635 4.20592 5.66468 4.74988 4.25595C4.74988 4.25595 5.58524 3.97817 7.49879 5.30754C8.31472 5.07936 9.15979 4.96032 10.0049 4.96032C10.8499 4.96032 11.695 5.07936 12.5109 5.30754C14.4245 3.97817 15.2598 4.25595 15.2598 4.25595C15.8038 5.66468 15.4638 6.70635 15.357 6.96429C15.9981 7.67857 16.3866 8.60119 16.3866 9.7123C16.3866 13.6508 14.0457 14.5139 11.8213 14.7718C12.1807 15.0893 12.5012 15.7143 12.5012 16.6667C12.5012 18.0357 12.4915 19.1468 12.4915 19.4841C12.4915 19.7619 12.6663 20.0794 13.1812 19.9802C17.2705 18.5714 20.0194 14.6528 20.0097 10.248C20 4.59325 15.5221 0 9.99514 0Z" fill="#FCFCFC"/>
</g>
<defs>
<clipPath id="clip0_4_20">
<rect width="20" height="20" fill="white"/>
</clipPath>
</defs>
</svg>
