<svg width="20" height="20" viewBox="0 0 20 20" fill="none" xmlns="http://www.w3.org/2000/svg">
<g clip-path="url(#clip0_4_18)">
<path d="M18 0H2C0.898876 0 0 0.898876 0 2V18C0 19.1011 0.898876 20 2 20H18C19.1011 20 20 19.1011 20 18V2C20 0.898876 19.1011 0 18 0ZM6 17H3V8H6V17ZM4.50562 6.30337C3.50562 6.30337 2.70787 5.50562 2.70787 4.50562C2.70787 3.50562 3.50562 2.70787 4.50562 2.70787C5.50562 2.70787 6.30337 3.50562 6.30337 4.50562C6.30337 5.50562 5.50562 6.30337 4.50562 6.30337ZM17 17H14V11.6966C14 10.8989 13.3034 10.191 12.5056 10.191C11.7079 10.191 11.0112 10.8876 11.0112 11.6966V17H8.01124V8H11.0112V9.20225C11.5056 8.40449 12.6067 7.79775 13.5169 7.79775C15.4157 7.79775 17.0112 9.39326 17.0112 11.2921V16.9888L17 17Z" fill="white"/>
</g>
<defs>
<clipPath id="clip0_4_18">
<rect width="20" height="20" fill="white"/>
</clipPath>
</defs>
</svg>
